<svg width="148" height="66" viewBox="0 0 148 66" fill="none" xmlns="http://www.w3.org/2000/svg">
<g clip-path="url(#clip0_4633_10420)">
<path d="M21.2871 18.5226C20.3724 17.6194 19.2304 17.6194 18.3214 18.5226C17.6281 19.2101 16.9347 19.8976 16.253 20.5968C16.0666 20.7891 15.9092 20.8299 15.682 20.7017C15.2334 20.457 14.7556 20.2589 14.3244 19.9908C12.3143 18.7265 10.6304 17.1009 9.13881 15.2714C8.39885 14.3624 7.74045 13.3894 7.28015 12.294C7.18693 12.0726 7.20441 11.9269 7.38503 11.7463C8.07839 11.0763 8.75426 10.3887 9.43597 9.70119C10.3857 8.74564 10.3857 7.62695 9.43014 6.66557C8.88827 6.11788 8.34641 5.58183 7.80454 5.03414C7.24519 4.47479 6.69167 3.90962 6.1265 3.3561C5.21173 2.46464 4.06973 2.46464 3.16079 3.36193C2.46161 4.04946 1.79156 4.75447 1.08072 5.43034C0.422322 6.05378 0.09021 6.81706 0.0202916 7.70852C-0.0904125 9.15932 0.265006 10.5286 0.766088 11.8628C1.79156 14.6246 3.35307 17.0776 5.24669 19.3266C7.80454 22.3681 10.8576 24.7744 14.4293 26.5107C16.0374 27.2915 17.7038 27.8916 19.5159 27.9907C20.7627 28.0606 21.8465 27.746 22.7146 26.7729C23.3089 26.1087 23.979 25.5027 24.6083 24.8676C25.5405 23.9237 25.5463 22.7818 24.6199 21.8495C23.5129 20.7366 22.4 19.6296 21.2871 18.5226Z" fill="#6366F1"/>
<path d="M20.1744 13.8788L22.3243 13.5118C21.9864 11.5366 21.0542 9.74782 19.6383 8.32615C18.1409 6.82873 16.2473 5.88483 14.1614 5.59351L13.8584 7.75515C15.4723 7.98238 16.9406 8.7107 18.1001 9.87018C19.1955 10.9656 19.9122 12.3523 20.1744 13.8788Z" fill="#6366F1"/>
<path d="M23.5359 4.53304C21.0538 2.05094 17.9133 0.483602 14.4465 0L14.1436 2.16164C17.1384 2.58115 19.8536 3.93874 21.9977 6.07707C24.0312 8.11053 25.3655 10.68 25.8491 13.5059L27.999 13.1388C27.4339 9.86432 25.8898 6.89279 23.5359 4.53304Z" fill="#6366F1"/>
</g>
<path d="M4.48 60.21C3.77533 60.21 3.14067 60.0933 2.576 59.86C2.016 59.622 1.55167 59.286 1.183 58.852C0.819 58.418 0.581 57.9023 0.469 57.305L1.519 57.13C1.687 57.7833 2.04167 58.2967 2.583 58.67C3.12433 59.0387 3.77067 59.223 4.522 59.223C5.01667 59.223 5.46 59.146 5.852 58.992C6.244 58.8333 6.552 58.6093 6.776 58.32C7 58.0307 7.112 57.6877 7.112 57.291C7.112 57.0297 7.06533 56.808 6.972 56.626C6.87867 56.4393 6.755 56.2853 6.601 56.164C6.447 56.0427 6.279 55.9423 6.097 55.863C5.915 55.779 5.73767 55.7113 5.565 55.66L3.01 54.897C2.702 54.8083 2.41733 54.6963 2.156 54.561C1.89467 54.421 1.666 54.2553 1.47 54.064C1.27867 53.868 1.12933 53.6393 1.022 53.378C0.914667 53.1167 0.861 52.818 0.861 52.482C0.861 51.9127 1.01033 51.4203 1.309 51.005C1.60767 50.5897 2.016 50.27 2.534 50.046C3.052 49.822 3.64233 49.7123 4.305 49.717C4.977 49.717 5.57667 49.836 6.104 50.074C6.636 50.312 7.07467 50.6527 7.42 51.096C7.76533 51.5347 7.994 52.055 8.106 52.657L7.028 52.853C6.958 52.4143 6.797 52.034 6.545 51.712C6.293 51.39 5.971 51.1427 5.579 50.97C5.19167 50.7927 4.76467 50.7017 4.298 50.697C3.84533 50.697 3.44167 50.774 3.087 50.928C2.737 51.0773 2.45933 51.2827 2.254 51.544C2.04867 51.8053 1.946 52.104 1.946 52.44C1.946 52.7807 2.03933 53.0537 2.226 53.259C2.41733 53.4643 2.65067 53.6253 2.926 53.742C3.206 53.8587 3.47667 53.9543 3.738 54.029L5.712 54.61C5.91733 54.666 6.15767 54.7477 6.433 54.855C6.713 54.9577 6.98367 55.107 7.245 55.303C7.511 55.4943 7.73033 55.7463 7.903 56.059C8.07567 56.3717 8.162 56.7683 8.162 57.249C8.162 57.7157 8.06867 58.1333 7.882 58.502C7.7 58.8707 7.441 59.181 7.105 59.433C6.77367 59.685 6.384 59.8763 5.936 60.007C5.49267 60.1423 5.00733 60.21 4.48 60.21ZM13.723 60C13.2983 60.0887 12.8783 60.1237 12.463 60.105C12.0523 60.0863 11.6836 59.9977 11.357 59.839C11.035 59.6803 10.79 59.433 10.622 59.097C10.4866 58.817 10.412 58.5347 10.398 58.25C10.3886 57.9607 10.384 57.6317 10.384 57.263V50.34H11.406V57.221C11.406 57.5383 11.4083 57.8043 11.413 58.019C11.4223 58.229 11.4713 58.4157 11.56 58.579C11.728 58.8917 11.994 59.0783 12.358 59.139C12.7266 59.1997 13.1816 59.1857 13.723 59.097V60ZM8.76695 53.322V52.44H13.723V53.322H8.76695ZM15.3524 51.005V49.85H16.3814V51.005H15.3524ZM15.3524 60V52.44H16.3814V60H15.3524ZM18.62 60V49.71H19.649V60H18.62ZM21.8876 60V49.71H22.9166V60H21.8876ZM33.2779 60V56.143C33.2779 55.723 33.2382 55.338 33.1589 54.988C33.0796 54.6333 32.9512 54.3253 32.7739 54.064C32.6012 53.798 32.3749 53.5927 32.0949 53.448C31.8196 53.3033 31.4836 53.231 31.0869 53.231C30.7229 53.231 30.4009 53.294 30.1209 53.42C29.8456 53.546 29.6122 53.728 29.4209 53.966C29.2342 54.1993 29.0919 54.484 28.9939 54.82C28.8959 55.156 28.8469 55.5387 28.8469 55.968L28.1189 55.807C28.1189 55.0323 28.2542 54.3813 28.5249 53.854C28.7956 53.3267 29.1689 52.9277 29.6449 52.657C30.1209 52.3863 30.6669 52.251 31.2829 52.251C31.7356 52.251 32.1299 52.321 32.4659 52.461C32.8066 52.601 33.0936 52.79 33.3269 53.028C33.5649 53.266 33.7562 53.539 33.9009 53.847C34.0456 54.1503 34.1506 54.4747 34.2159 54.82C34.2812 55.1607 34.3139 55.5013 34.3139 55.842V60H33.2779ZM27.8109 60V49.92H28.7419V55.611H28.8469V60H27.8109ZM38.2934 60.21C37.7241 60.21 37.2457 60.1073 36.8584 59.902C36.4757 59.6967 36.1887 59.4237 35.9974 59.083C35.8061 58.7423 35.7104 58.3713 35.7104 57.97C35.7104 57.5593 35.7921 57.2093 35.9554 56.92C36.1234 56.626 36.3497 56.3857 36.6344 56.199C36.9237 56.0123 37.2574 55.87 37.6354 55.772C38.0181 55.6787 38.4404 55.597 38.9024 55.527C39.3691 55.4523 39.8241 55.3893 40.2674 55.338C40.7154 55.282 41.1074 55.2283 41.4434 55.177L41.0794 55.401C41.0934 54.6543 40.9487 54.1013 40.6454 53.742C40.3421 53.3827 39.8147 53.203 39.0634 53.203C38.5454 53.203 38.1067 53.3197 37.7474 53.553C37.3927 53.7863 37.1431 54.155 36.9984 54.659L35.9974 54.365C36.1701 53.6883 36.5177 53.1633 37.0404 52.79C37.5631 52.4167 38.2421 52.23 39.0774 52.23C39.7681 52.23 40.3537 52.3607 40.8344 52.622C41.3197 52.8787 41.6627 53.252 41.8634 53.742C41.9567 53.9613 42.0174 54.2063 42.0454 54.477C42.0734 54.7477 42.0874 55.023 42.0874 55.303V60H41.1704V58.103L41.4364 58.215C41.1797 58.8637 40.7807 59.3583 40.2394 59.699C39.6981 60.0397 39.0494 60.21 38.2934 60.21ZM38.4124 59.321C38.8931 59.321 39.3131 59.2347 39.6724 59.062C40.0317 58.8893 40.3211 58.6537 40.5404 58.355C40.7597 58.0517 40.9021 57.711 40.9674 57.333C41.0234 57.0903 41.0537 56.8243 41.0584 56.535C41.0631 56.241 41.0654 56.0217 41.0654 55.877L41.4574 56.08C41.1074 56.1267 40.7271 56.1733 40.3164 56.22C39.9104 56.2667 39.5091 56.3203 39.1124 56.381C38.7204 56.4417 38.3657 56.514 38.0484 56.598C37.8337 56.6587 37.6261 56.745 37.4254 56.857C37.2247 56.9643 37.0591 57.109 36.9284 57.291C36.8024 57.473 36.7394 57.6993 36.7394 57.97C36.7394 58.1893 36.7931 58.4017 36.9004 58.607C37.0124 58.8123 37.1897 58.9827 37.4324 59.118C37.6797 59.2533 38.0064 59.321 38.4124 59.321ZM45.6803 60L42.9363 52.44H43.9793L46.2123 58.656L48.4313 52.44H49.4883L46.7443 60H45.6803ZM53.6712 60.21C52.9339 60.21 52.2945 60.0467 51.7532 59.72C51.2165 59.3933 50.7989 58.9337 50.5002 58.341C50.2015 57.7483 50.0522 57.053 50.0522 56.255C50.0522 55.429 50.1992 54.715 50.4932 54.113C50.7872 53.511 51.2002 53.0467 51.7322 52.72C52.2689 52.3933 52.9012 52.23 53.6292 52.23C54.3759 52.23 55.0129 52.4027 55.5402 52.748C56.0675 53.0887 56.4665 53.5787 56.7372 54.218C57.0079 54.8573 57.1315 55.6203 57.1082 56.507H56.0582V56.143C56.0395 55.163 55.8272 54.4233 55.4212 53.924C55.0199 53.4247 54.4319 53.175 53.6572 53.175C52.8452 53.175 52.2222 53.4387 51.7882 53.966C51.3589 54.4933 51.1442 55.2447 51.1442 56.22C51.1442 57.172 51.3589 57.9117 51.7882 58.439C52.2222 58.9617 52.8359 59.223 53.6292 59.223C54.1705 59.223 54.6419 59.0993 55.0432 58.852C55.4492 58.6 55.7689 58.2383 56.0022 57.767L56.9612 58.138C56.6625 58.796 56.2215 59.307 55.6382 59.671C55.0595 60.0303 54.4039 60.21 53.6712 60.21ZM50.7802 56.507V55.646H56.5552V56.507H50.7802ZM67.2001 60.21C66.4954 60.21 65.8934 60.035 65.3941 59.685C64.8948 59.3303 64.5121 58.852 64.2461 58.25C63.9801 57.648 63.8471 56.969 63.8471 56.213C63.8471 55.4617 63.9778 54.785 64.2391 54.183C64.5051 53.581 64.8854 53.105 65.3801 52.755C65.8748 52.405 66.4674 52.23 67.1581 52.23C67.8674 52.23 68.4648 52.4027 68.9501 52.748C69.4354 53.0933 69.8018 53.567 70.0491 54.169C70.3011 54.7663 70.4271 55.4477 70.4271 56.213C70.4271 56.9643 70.3034 57.6433 70.0561 58.25C69.8088 58.852 69.4448 59.3303 68.9641 59.685C68.4834 60.035 67.8954 60.21 67.2001 60.21ZM67.3051 59.251C67.8418 59.251 68.2851 59.1203 68.6351 58.859C68.9851 58.5977 69.2464 58.2383 69.4191 57.781C69.5918 57.319 69.6781 56.7963 69.6781 56.213C69.6781 55.6203 69.5918 55.0977 69.4191 54.645C69.2464 54.1877 68.9851 53.8307 68.6351 53.574C68.2898 53.3173 67.8534 53.189 67.3261 53.189C66.7848 53.189 66.3368 53.322 65.9821 53.588C65.6274 53.854 65.3638 54.2157 65.1911 54.673C65.0231 55.1303 64.9391 55.6437 64.9391 56.213C64.9391 56.787 65.0254 57.305 65.1981 57.767C65.3754 58.2243 65.6391 58.586 65.9891 58.852C66.3391 59.118 66.7778 59.251 67.3051 59.251ZM69.5661 63.36V58.131H69.6781V52.44H70.6021V63.36H69.5661ZM75.4569 60.189C75.0043 60.189 74.6076 60.119 74.2669 59.979C73.9309 59.839 73.6439 59.65 73.4059 59.412C73.1726 59.174 72.9836 58.9033 72.8389 58.6C72.6943 58.292 72.5893 57.9677 72.5239 57.627C72.4586 57.2817 72.4259 56.9387 72.4259 56.598V52.44H73.4619V56.297C73.4619 56.7123 73.5016 57.0973 73.5809 57.452C73.6603 57.8067 73.7863 58.117 73.9589 58.383C74.1363 58.6443 74.3626 58.8473 74.6379 58.992C74.9179 59.1367 75.2563 59.209 75.6529 59.209C76.0169 59.209 76.3366 59.146 76.6119 59.02C76.8919 58.894 77.1253 58.7143 77.3119 58.481C77.5033 58.243 77.6479 57.956 77.7459 57.62C77.8439 57.2793 77.8929 56.8967 77.8929 56.472L78.6209 56.633C78.6209 57.4077 78.4856 58.0587 78.2149 58.586C77.9443 59.1133 77.5709 59.5123 77.0949 59.783C76.6189 60.0537 76.0729 60.189 75.4569 60.189ZM77.9979 60V58.138H77.8929V52.44H78.9219V60H77.9979ZM84.0774 60.21C83.3401 60.21 82.7008 60.0467 82.1594 59.72C81.6228 59.3933 81.2051 58.9337 80.9064 58.341C80.6078 57.7483 80.4584 57.053 80.4584 56.255C80.4584 55.429 80.6054 54.715 80.8994 54.113C81.1934 53.511 81.6064 53.0467 82.1384 52.72C82.6751 52.3933 83.3074 52.23 84.0354 52.23C84.7821 52.23 85.4191 52.4027 85.9464 52.748C86.4738 53.0887 86.8728 53.5787 87.1434 54.218C87.4141 54.8573 87.5378 55.6203 87.5144 56.507H86.4644V56.143C86.4458 55.163 86.2334 54.4233 85.8274 53.924C85.4261 53.4247 84.8381 53.175 84.0634 53.175C83.2514 53.175 82.6284 53.4387 82.1944 53.966C81.7651 54.4933 81.5504 55.2447 81.5504 56.22C81.5504 57.172 81.7651 57.9117 82.1944 58.439C82.6284 58.9617 83.2421 59.223 84.0354 59.223C84.5768 59.223 85.0481 59.0993 85.4494 58.852C85.8554 58.6 86.1751 58.2383 86.4084 57.767L87.3674 58.138C87.0688 58.796 86.6278 59.307 86.0444 59.671C85.4658 60.0303 84.8101 60.21 84.0774 60.21ZM81.1864 56.507V55.646H86.9614V56.507H81.1864ZM91.8889 60.203C91.0022 60.203 90.2719 60.0117 89.6979 59.629C89.1286 59.2463 88.7786 58.7143 88.6479 58.033L89.6979 57.858C89.8099 58.2873 90.0642 58.6303 90.4609 58.887C90.8622 59.139 91.3569 59.265 91.9449 59.265C92.5189 59.265 92.9716 59.146 93.3029 58.908C93.6342 58.6653 93.7999 58.3363 93.7999 57.921C93.7999 57.6877 93.7462 57.4987 93.6389 57.354C93.5362 57.2047 93.3239 57.067 93.0019 56.941C92.6799 56.815 92.1992 56.6657 91.5599 56.493C90.8739 56.3063 90.3372 56.1197 89.9499 55.933C89.5626 55.7463 89.2872 55.5317 89.1239 55.289C88.9606 55.0417 88.8789 54.7407 88.8789 54.386C88.8789 53.9567 89.0002 53.581 89.2429 53.259C89.4856 52.9323 89.8216 52.6803 90.2509 52.503C90.6802 52.321 91.1796 52.23 91.7489 52.23C92.3182 52.23 92.8269 52.3233 93.2749 52.51C93.7276 52.692 94.0916 52.9487 94.3669 53.28C94.6422 53.6113 94.8056 53.9963 94.8569 54.435L93.8069 54.624C93.7369 54.1807 93.5152 53.8307 93.1419 53.574C92.7732 53.3127 92.3042 53.1773 91.7349 53.168C91.1982 53.154 90.7619 53.2567 90.4259 53.476C90.0899 53.6907 89.9219 53.9777 89.9219 54.337C89.9219 54.5377 89.9826 54.7103 90.1039 54.855C90.2252 54.995 90.4446 55.128 90.7619 55.254C91.0839 55.38 91.5412 55.5177 92.1339 55.667C92.8292 55.8443 93.3752 56.031 93.7719 56.227C94.1686 56.423 94.4509 56.654 94.6189 56.92C94.7869 57.186 94.8709 57.515 94.8709 57.907C94.8709 58.621 94.6049 59.1833 94.0729 59.594C93.5456 60 92.8176 60.203 91.8889 60.203ZM100.539 60C100.115 60.0887 99.6947 60.1237 99.2794 60.105C98.8687 60.0863 98.5 59.9977 98.1734 59.839C97.8514 59.6803 97.6064 59.433 97.4384 59.097C97.303 58.817 97.2284 58.5347 97.2144 58.25C97.205 57.9607 97.2004 57.6317 97.2004 57.263V50.34H98.2224V57.221C98.2224 57.5383 98.2247 57.8043 98.2294 58.019C98.2387 58.229 98.2877 58.4157 98.3764 58.579C98.5444 58.8917 98.8104 59.0783 99.1744 59.139C99.543 59.1997 99.998 59.1857 100.539 59.097V60ZM95.5834 53.322V52.44H100.539V53.322H95.5834ZM102.169 51.005V49.85H103.198V51.005H102.169ZM102.169 60V52.44H103.198V60H102.169ZM108.453 60.21C107.702 60.21 107.06 60.0397 106.528 59.699C105.996 59.3583 105.588 58.887 105.303 58.285C105.019 57.683 104.876 56.9923 104.876 56.213C104.876 55.4197 105.021 54.7243 105.31 54.127C105.6 53.5297 106.01 53.0653 106.542 52.734C107.079 52.398 107.716 52.23 108.453 52.23C109.209 52.23 109.853 52.4003 110.385 52.741C110.922 53.077 111.33 53.546 111.61 54.148C111.895 54.7453 112.037 55.4337 112.037 56.213C112.037 57.0063 111.895 57.704 111.61 58.306C111.326 58.9033 110.915 59.37 110.378 59.706C109.842 60.042 109.2 60.21 108.453 60.21ZM108.453 59.223C109.293 59.223 109.919 58.9453 110.329 58.39C110.74 57.83 110.945 57.1043 110.945 56.213C110.945 55.2983 110.738 54.5703 110.322 54.029C109.912 53.4877 109.289 53.217 108.453 53.217C107.889 53.217 107.422 53.3453 107.053 53.602C106.689 53.854 106.416 54.2063 106.234 54.659C106.057 55.107 105.968 55.625 105.968 56.213C105.968 57.123 106.178 57.8533 106.598 58.404C107.018 58.95 107.637 59.223 108.453 59.223ZM119.042 60V56.143C119.042 55.723 119.002 55.338 118.923 54.988C118.843 54.6333 118.715 54.3253 118.538 54.064C118.365 53.798 118.139 53.5927 117.859 53.448C117.583 53.3033 117.247 53.231 116.851 53.231C116.487 53.231 116.165 53.294 115.885 53.42C115.609 53.546 115.376 53.728 115.185 53.966C114.998 54.1993 114.856 54.484 114.758 54.82C114.66 55.156 114.611 55.5387 114.611 55.968L113.883 55.807C113.883 55.0323 114.018 54.3813 114.289 53.854C114.559 53.3267 114.933 52.9277 115.409 52.657C115.885 52.3863 116.431 52.251 117.047 52.251C117.499 52.251 117.894 52.321 118.23 52.461C118.57 52.601 118.857 52.79 119.091 53.028C119.329 53.266 119.52 53.539 119.665 53.847C119.809 54.1503 119.914 54.4747 119.98 54.82C120.045 55.1607 120.078 55.5013 120.078 55.842V60H119.042ZM113.575 60V52.44H114.506V54.302H114.611V60H113.575ZM124.715 60.203C123.828 60.203 123.098 60.0117 122.524 59.629C121.955 59.2463 121.605 58.7143 121.474 58.033L122.524 57.858C122.636 58.2873 122.89 58.6303 123.287 58.887C123.688 59.139 124.183 59.265 124.771 59.265C125.345 59.265 125.798 59.146 126.129 58.908C126.46 58.6653 126.626 58.3363 126.626 57.921C126.626 57.6877 126.572 57.4987 126.465 57.354C126.362 57.2047 126.15 57.067 125.828 56.941C125.506 56.815 125.025 56.6657 124.386 56.493C123.7 56.3063 123.163 56.1197 122.776 55.933C122.389 55.7463 122.113 55.5317 121.95 55.289C121.787 55.0417 121.705 54.7407 121.705 54.386C121.705 53.9567 121.826 53.581 122.069 53.259C122.312 52.9323 122.648 52.6803 123.077 52.503C123.506 52.321 124.006 52.23 124.575 52.23C125.144 52.23 125.653 52.3233 126.101 52.51C126.554 52.692 126.918 52.9487 127.193 53.28C127.468 53.6113 127.632 53.9963 127.683 54.435L126.633 54.624C126.563 54.1807 126.341 53.8307 125.968 53.574C125.599 53.3127 125.13 53.1773 124.561 53.168C124.024 53.154 123.588 53.2567 123.252 53.476C122.916 53.6907 122.748 53.9777 122.748 54.337C122.748 54.5377 122.809 54.7103 122.93 54.855C123.051 54.995 123.271 55.128 123.588 55.254C123.91 55.38 124.367 55.5177 124.96 55.667C125.655 55.8443 126.201 56.031 126.598 56.227C126.995 56.423 127.277 56.654 127.445 56.92C127.613 57.186 127.697 57.515 127.697 57.907C127.697 58.621 127.431 59.1833 126.899 59.594C126.372 60 125.644 60.203 124.715 60.203ZM131.224 57.249C131.224 56.885 131.24 56.5653 131.273 56.29C131.31 56.01 131.403 55.73 131.553 55.45C131.693 55.184 131.865 54.9647 132.071 54.792C132.276 54.6147 132.491 54.449 132.715 54.295C132.939 54.1363 133.151 53.9497 133.352 53.735C133.534 53.525 133.655 53.3127 133.716 53.098C133.776 52.8833 133.807 52.657 133.807 52.419C133.807 52.181 133.776 51.9687 133.716 51.782C133.66 51.5953 133.571 51.4343 133.45 51.299C133.263 51.0703 133.034 50.914 132.764 50.83C132.493 50.746 132.211 50.704 131.917 50.704C131.627 50.704 131.357 50.746 131.105 50.83C130.857 50.9093 130.652 51.033 130.489 51.201C130.33 51.3503 130.213 51.53 130.139 51.74C130.069 51.95 130.034 52.1717 130.034 52.405H128.97C128.988 52.0363 129.068 51.677 129.208 51.327C129.352 50.9723 129.562 50.676 129.838 50.438C130.113 50.186 130.433 50.004 130.797 49.892C131.165 49.7753 131.536 49.717 131.91 49.717C132.367 49.717 132.801 49.787 133.212 49.927C133.622 50.0623 133.968 50.291 134.248 50.613C134.472 50.851 134.635 51.124 134.738 51.432C134.845 51.7353 134.899 52.0597 134.899 52.405C134.899 52.7923 134.826 53.1563 134.682 53.497C134.537 53.8377 134.334 54.141 134.073 54.407C133.914 54.5797 133.734 54.7407 133.534 54.89C133.333 55.0347 133.139 55.1863 132.953 55.345C132.771 55.499 132.631 55.667 132.533 55.849C132.411 56.073 132.344 56.2853 132.33 56.486C132.32 56.6867 132.316 56.941 132.316 57.249H131.224ZM131.231 60V58.628H132.316V60H131.231Z" fill="#565973"/>
<defs>
<clipPath id="clip0_4633_10420">
<rect width="28" height="28" fill="white"/>
</clipPath>
</defs>
</svg>
