<svg width="296" height="66" viewBox="0 0 296 66" fill="none" xmlns="http://www.w3.org/2000/svg">
<path d="M14.0547 1C21.7443 1 28 6.5195 28 13.3047C28 16.171 26.8657 18.9483 24.8013 21.1497C24.3927 22.8344 24.8886 24.6192 26.1191 25.8497C26.6336 26.3642 26.2697 27.25 25.5391 27.25C23.2015 27.25 20.948 26.3344 19.2738 24.7194C17.6171 25.3106 15.8644 25.6094 14.0547 25.6094C6.36508 25.6094 0 20.0899 0 13.3047C0 6.5195 6.36508 1 14.0547 1ZM20.5078 15.7656C21.8648 15.7656 22.9688 14.6617 22.9688 13.3047C22.9688 11.9477 21.8648 10.8438 20.5078 10.8438C19.1508 10.8438 18.0469 11.9477 18.0469 13.3047C18.0469 14.6617 19.1508 15.7656 20.5078 15.7656ZM13.9453 15.7656C15.3023 15.7656 16.4062 14.6617 16.4062 13.3047C16.4062 11.9477 15.3023 10.8438 13.9453 10.8438C12.5883 10.8438 11.4844 11.9477 11.4844 13.3047C11.4844 14.6617 12.5883 15.7656 13.9453 15.7656ZM7.38281 15.7656C8.73983 15.7656 9.84375 14.6617 9.84375 13.3047C9.84375 11.9477 8.73983 10.8438 7.38281 10.8438C6.0258 10.8438 4.92188 11.9477 4.92188 13.3047C4.92188 14.6617 6.0258 15.7656 7.38281 15.7656Z" fill="#22C55E"/>
<path d="M0.98 60V49.92H4.039C4.14633 49.92 4.32833 49.9223 4.585 49.927C4.84633 49.9317 5.096 49.9503 5.334 49.983C6.09933 50.0903 6.73867 50.375 7.252 50.837C7.76533 51.299 8.15033 51.887 8.407 52.601C8.66367 53.315 8.792 54.1013 8.792 54.96C8.792 55.8187 8.66367 56.605 8.407 57.319C8.15033 58.033 7.76533 58.621 7.252 59.083C6.73867 59.545 6.09933 59.8297 5.334 59.937C5.10067 59.965 4.851 59.9837 4.585 59.993C4.319 59.9977 4.137 60 4.039 60H0.98ZM2.044 59.013H4.039C4.23033 59.013 4.43567 59.0083 4.655 58.999C4.879 58.985 5.07033 58.9617 5.229 58.929C5.817 58.8263 6.29067 58.5883 6.65 58.215C7.014 57.8417 7.28 57.375 7.448 56.815C7.616 56.2503 7.7 55.632 7.7 54.96C7.7 54.2833 7.616 53.6627 7.448 53.098C7.28 52.5333 7.014 52.0667 6.65 51.698C6.286 51.3293 5.81233 51.0937 5.229 50.991C5.07033 50.9583 4.87667 50.9373 4.648 50.928C4.424 50.914 4.221 50.907 4.039 50.907H2.044V59.013ZM13.5433 60.21C12.7919 60.21 12.1503 60.0397 11.6183 59.699C11.0863 59.3583 10.6779 58.887 10.3933 58.285C10.1086 57.683 9.96625 56.9923 9.96625 56.213C9.96625 55.4197 10.1109 54.7243 10.4003 54.127C10.6896 53.5297 11.1003 53.0653 11.6323 52.734C12.1689 52.398 12.8059 52.23 13.5433 52.23C14.2993 52.23 14.9433 52.4003 15.4753 52.741C16.0119 53.077 16.4203 53.546 16.7003 54.148C16.9849 54.7453 17.1273 55.4337 17.1273 56.213C17.1273 57.0063 16.9849 57.704 16.7003 58.306C16.4156 58.9033 16.0049 59.37 15.4683 59.706C14.9316 60.042 14.2899 60.21 13.5433 60.21ZM13.5433 59.223C14.3833 59.223 15.0086 58.9453 15.4193 58.39C15.8299 57.83 16.0353 57.1043 16.0353 56.213C16.0353 55.2983 15.8276 54.5703 15.4123 54.029C15.0016 53.4877 14.3786 53.217 13.5433 53.217C12.9786 53.217 12.5119 53.3453 12.1433 53.602C11.7793 53.854 11.5063 54.2063 11.3243 54.659C11.1469 55.107 11.0583 55.625 11.0583 56.213C11.0583 57.123 11.2683 57.8533 11.6883 58.404C12.1083 58.95 12.7266 59.223 13.5433 59.223ZM24.1314 60V56.143C24.1314 55.723 24.0917 55.338 24.0124 54.988C23.9331 54.6333 23.8047 54.3253 23.6274 54.064C23.4547 53.798 23.2284 53.5927 22.9484 53.448C22.6731 53.3033 22.3371 53.231 21.9404 53.231C21.5764 53.231 21.2544 53.294 20.9744 53.42C20.6991 53.546 20.4657 53.728 20.2744 53.966C20.0877 54.1993 19.9454 54.484 19.8474 54.82C19.7494 55.156 19.7004 55.5387 19.7004 55.968L18.9724 55.807C18.9724 55.0323 19.1077 54.3813 19.3784 53.854C19.6491 53.3267 20.0224 52.9277 20.4984 52.657C20.9744 52.3863 21.5204 52.251 22.1364 52.251C22.5891 52.251 22.9834 52.321 23.3194 52.461C23.6601 52.601 23.9471 52.79 24.1804 53.028C24.4184 53.266 24.6097 53.539 24.7544 53.847C24.8991 54.1503 25.0041 54.4747 25.0694 54.82C25.1347 55.1607 25.1674 55.5013 25.1674 55.842V60H24.1314ZM18.6644 60V52.44H19.5954V54.302H19.7004V60H18.6644ZM26.4234 52.86L26.4864 52.349C26.673 52.363 26.8084 52.3257 26.8924 52.237C26.9764 52.1483 27.0277 52.0293 27.0464 51.88C27.065 51.7307 27.0697 51.5697 27.0604 51.397H26.4234V49.92H27.6204V51.677C27.6204 52.1063 27.5107 52.4283 27.2914 52.643C27.0767 52.8577 26.7874 52.93 26.4234 52.86ZM33.6429 60C33.2182 60.0887 32.7982 60.1237 32.3829 60.105C31.9722 60.0863 31.6035 59.9977 31.2769 59.839C30.9549 59.6803 30.7099 59.433 30.5419 59.097C30.4065 58.817 30.3319 58.5347 30.3179 58.25C30.3085 57.9607 30.3039 57.6317 30.3039 57.263V50.34H31.3259V57.221C31.3259 57.5383 31.3282 57.8043 31.3329 58.019C31.3422 58.229 31.3912 58.4157 31.4799 58.579C31.6479 58.8917 31.9139 59.0783 32.2779 59.139C32.6465 59.1997 33.1015 59.1857 33.6429 59.097V60ZM28.6869 53.322V52.44H33.6429V53.322H28.6869ZM38.0751 60V49.71H39.1041V60H38.0751ZM41.3427 51.005V49.85H42.3717V51.005H41.3427ZM41.3427 60V52.44H42.3717V60H41.3427ZM44.4632 60L44.4702 49.92H45.5062V56.08L48.8802 52.44H50.2522L46.7102 56.22L50.7142 60H49.2162L45.5062 56.36V60H44.4632ZM54.4778 60.21C53.7405 60.21 53.1012 60.0467 52.5598 59.72C52.0232 59.3933 51.6055 58.9337 51.3068 58.341C51.0082 57.7483 50.8588 57.053 50.8588 56.255C50.8588 55.429 51.0058 54.715 51.2998 54.113C51.5938 53.511 52.0068 53.0467 52.5388 52.72C53.0755 52.3933 53.7078 52.23 54.4358 52.23C55.1825 52.23 55.8195 52.4027 56.3468 52.748C56.8742 53.0887 57.2732 53.5787 57.5438 54.218C57.8145 54.8573 57.9382 55.6203 57.9148 56.507H56.8648V56.143C56.8462 55.163 56.6338 54.4233 56.2278 53.924C55.8265 53.4247 55.2385 53.175 54.4638 53.175C53.6518 53.175 53.0288 53.4387 52.5948 53.966C52.1655 54.4933 51.9508 55.2447 51.9508 56.22C51.9508 57.172 52.1655 57.9117 52.5948 58.439C53.0288 58.9617 53.6425 59.223 54.4358 59.223C54.9772 59.223 55.4485 59.0993 55.8498 58.852C56.2558 58.6 56.5755 58.2383 56.8088 57.767L57.7678 58.138C57.4692 58.796 57.0282 59.307 56.4448 59.671C55.8662 60.0303 55.2105 60.21 54.4778 60.21ZM51.5868 56.507V55.646H57.3618V56.507H51.5868ZM65.666 60.21C64.9707 60.21 64.3827 60.035 63.902 59.685C63.4213 59.3303 63.0573 58.852 62.81 58.25C62.5627 57.6433 62.439 56.9643 62.439 56.213C62.439 55.4477 62.5627 54.7663 62.81 54.169C63.062 53.567 63.4307 53.0933 63.916 52.748C64.4013 52.4027 64.9987 52.23 65.708 52.23C66.3987 52.23 66.9913 52.405 67.486 52.755C67.9807 53.105 68.3587 53.581 68.62 54.183C68.886 54.785 69.019 55.4617 69.019 56.213C69.019 56.969 68.886 57.648 68.62 58.25C68.354 58.852 67.9713 59.3303 67.472 59.685C66.9727 60.035 66.3707 60.21 65.666 60.21ZM62.264 63.36V52.44H63.188V58.131H63.3V63.36H62.264ZM65.561 59.251C66.0883 59.251 66.527 59.118 66.877 58.852C67.227 58.586 67.4883 58.2243 67.661 57.767C67.8383 57.305 67.927 56.787 67.927 56.213C67.927 55.6437 67.8407 55.1303 67.668 54.673C67.4953 54.2157 67.2317 53.854 66.877 53.588C66.527 53.322 66.0813 53.189 65.54 53.189C65.0127 53.189 64.574 53.3173 64.224 53.574C63.8787 53.8307 63.6197 54.1877 63.447 54.645C63.2743 55.0977 63.188 55.6203 63.188 56.213C63.188 56.7963 63.2743 57.319 63.447 57.781C63.6197 58.2383 63.881 58.5977 64.231 58.859C64.581 59.1203 65.0243 59.251 65.561 59.251ZM76.0162 60V56.143C76.0162 55.723 75.9765 55.338 75.8972 54.988C75.8178 54.6333 75.6895 54.3253 75.5122 54.064C75.3395 53.798 75.1132 53.5927 74.8332 53.448C74.5578 53.3033 74.2218 53.231 73.8252 53.231C73.4612 53.231 73.1392 53.294 72.8592 53.42C72.5838 53.546 72.3505 53.728 72.1592 53.966C71.9725 54.1993 71.8302 54.484 71.7322 54.82C71.6342 55.156 71.5852 55.5387 71.5852 55.968L70.8572 55.807C70.8572 55.0323 70.9925 54.3813 71.2632 53.854C71.5338 53.3267 71.9072 52.9277 72.3832 52.657C72.8592 52.3863 73.4052 52.251 74.0212 52.251C74.4738 52.251 74.8682 52.321 75.2042 52.461C75.5448 52.601 75.8318 52.79 76.0652 53.028C76.3032 53.266 76.4945 53.539 76.6392 53.847C76.7838 54.1503 76.8888 54.4747 76.9542 54.82C77.0195 55.1607 77.0522 55.5013 77.0522 55.842V60H76.0162ZM70.5492 60V49.92H71.4802V55.611H71.5852V60H70.5492ZM82.0257 60.21C81.2743 60.21 80.6327 60.0397 80.1007 59.699C79.5687 59.3583 79.1603 58.887 78.8757 58.285C78.591 57.683 78.4487 56.9923 78.4487 56.213C78.4487 55.4197 78.5933 54.7243 78.8827 54.127C79.172 53.5297 79.5827 53.0653 80.1147 52.734C80.6513 52.398 81.2883 52.23 82.0257 52.23C82.7817 52.23 83.4257 52.4003 83.9577 52.741C84.4943 53.077 84.9027 53.546 85.1827 54.148C85.4673 54.7453 85.6097 55.4337 85.6097 56.213C85.6097 57.0063 85.4673 57.704 85.1827 58.306C84.898 58.9033 84.4873 59.37 83.9507 59.706C83.414 60.042 82.7723 60.21 82.0257 60.21ZM82.0257 59.223C82.8657 59.223 83.491 58.9453 83.9017 58.39C84.3123 57.83 84.5177 57.1043 84.5177 56.213C84.5177 55.2983 84.31 54.5703 83.8947 54.029C83.484 53.4877 82.861 53.217 82.0257 53.217C81.461 53.217 80.9943 53.3453 80.6257 53.602C80.2617 53.854 79.9887 54.2063 79.8067 54.659C79.6293 55.107 79.5407 55.625 79.5407 56.213C79.5407 57.123 79.7507 57.8533 80.1707 58.404C80.5907 58.95 81.209 59.223 82.0257 59.223ZM92.6138 60V56.143C92.6138 55.723 92.5742 55.338 92.4948 54.988C92.4155 54.6333 92.2872 54.3253 92.1098 54.064C91.9372 53.798 91.7108 53.5927 91.4308 53.448C91.1555 53.3033 90.8195 53.231 90.4228 53.231C90.0588 53.231 89.7368 53.294 89.4568 53.42C89.1815 53.546 88.9482 53.728 88.7568 53.966C88.5702 54.1993 88.4278 54.484 88.3298 54.82C88.2318 55.156 88.1828 55.5387 88.1828 55.968L87.4548 55.807C87.4548 55.0323 87.5902 54.3813 87.8608 53.854C88.1315 53.3267 88.5048 52.9277 88.9808 52.657C89.4568 52.3863 90.0028 52.251 90.6188 52.251C91.0715 52.251 91.4658 52.321 91.8018 52.461C92.1425 52.601 92.4295 52.79 92.6628 53.028C92.9008 53.266 93.0922 53.539 93.2368 53.847C93.3815 54.1503 93.4865 54.4747 93.5518 54.82C93.6172 55.1607 93.6498 55.5013 93.6498 55.842V60H92.6138ZM87.1468 60V52.44H88.0778V54.302H88.1828V60H87.1468ZM98.6243 60.21C97.887 60.21 97.2476 60.0467 96.7063 59.72C96.1696 59.3933 95.752 58.9337 95.4533 58.341C95.1546 57.7483 95.0053 57.053 95.0053 56.255C95.0053 55.429 95.1523 54.715 95.4463 54.113C95.7403 53.511 96.1533 53.0467 96.6853 52.72C97.222 52.3933 97.8543 52.23 98.5823 52.23C99.329 52.23 99.966 52.4027 100.493 52.748C101.021 53.0887 101.42 53.5787 101.69 54.218C101.961 54.8573 102.085 55.6203 102.061 56.507H101.011V56.143C100.993 55.163 100.78 54.4233 100.374 53.924C99.973 53.4247 99.385 53.175 98.6103 53.175C97.7983 53.175 97.1753 53.4387 96.7413 53.966C96.312 54.4933 96.0973 55.2447 96.0973 56.22C96.0973 57.172 96.312 57.9117 96.7413 58.439C97.1753 58.9617 97.789 59.223 98.5823 59.223C99.1236 59.223 99.595 59.0993 99.9963 58.852C100.402 58.6 100.722 58.2383 100.955 57.767L101.914 58.138C101.616 58.796 101.175 59.307 100.591 59.671C100.013 60.0303 99.357 60.21 98.6243 60.21ZM95.7333 56.507V55.646H101.508V56.507H95.7333ZM109.553 60.21C108.793 60.21 108.149 60.0397 107.622 59.699C107.094 59.3583 106.693 58.8893 106.418 58.292C106.147 57.69 106.007 56.9993 105.998 56.22C106.007 55.4267 106.152 54.7313 106.432 54.134C106.712 53.532 107.115 53.0653 107.643 52.734C108.17 52.398 108.809 52.23 109.561 52.23C110.326 52.23 110.991 52.4167 111.556 52.79C112.125 53.1633 112.515 53.6743 112.725 54.323L111.717 54.645C111.539 54.1923 111.257 53.8423 110.87 53.595C110.487 53.343 110.048 53.217 109.553 53.217C108.998 53.217 108.539 53.3453 108.175 53.602C107.811 53.854 107.54 54.2063 107.363 54.659C107.185 55.1117 107.094 55.632 107.09 56.22C107.099 57.1253 107.309 57.8533 107.72 58.404C108.13 58.95 108.742 59.223 109.553 59.223C110.067 59.223 110.503 59.1063 110.863 58.873C111.227 58.635 111.502 58.2897 111.689 57.837L112.725 58.145C112.445 58.817 112.034 59.3303 111.493 59.685C110.951 60.035 110.305 60.21 109.553 60.21ZM116.291 60.21C115.722 60.21 115.244 60.1073 114.856 59.902C114.474 59.6967 114.187 59.4237 113.995 59.083C113.804 58.7423 113.708 58.3713 113.708 57.97C113.708 57.5593 113.79 57.2093 113.953 56.92C114.121 56.626 114.348 56.3857 114.632 56.199C114.922 56.0123 115.255 55.87 115.633 55.772C116.016 55.6787 116.438 55.597 116.9 55.527C117.367 55.4523 117.822 55.3893 118.265 55.338C118.713 55.282 119.105 55.2283 119.441 55.177L119.077 55.401C119.091 54.6543 118.947 54.1013 118.643 53.742C118.34 53.3827 117.813 53.203 117.061 53.203C116.543 53.203 116.105 53.3197 115.745 53.553C115.391 53.7863 115.141 54.155 114.996 54.659L113.995 54.365C114.168 53.6883 114.516 53.1633 115.038 52.79C115.561 52.4167 116.24 52.23 117.075 52.23C117.766 52.23 118.352 52.3607 118.832 52.622C119.318 52.8787 119.661 53.252 119.861 53.742C119.955 53.9613 120.015 54.2063 120.043 54.477C120.071 54.7477 120.085 55.023 120.085 55.303V60H119.168V58.103L119.434 58.215C119.178 58.8637 118.779 59.3583 118.237 59.699C117.696 60.0397 117.047 60.21 116.291 60.21ZM116.41 59.321C116.891 59.321 117.311 59.2347 117.67 59.062C118.03 58.8893 118.319 58.6537 118.538 58.355C118.758 58.0517 118.9 57.711 118.965 57.333C119.021 57.0903 119.052 56.8243 119.056 56.535C119.061 56.241 119.063 56.0217 119.063 55.877L119.455 56.08C119.105 56.1267 118.725 56.1733 118.314 56.22C117.908 56.2667 117.507 56.3203 117.11 56.381C116.718 56.4417 116.364 56.514 116.046 56.598C115.832 56.6587 115.624 56.745 115.423 56.857C115.223 56.9643 115.057 57.109 114.926 57.291C114.8 57.473 114.737 57.6993 114.737 57.97C114.737 58.1893 114.791 58.4017 114.898 58.607C115.01 58.8123 115.188 58.9827 115.43 59.118C115.678 59.2533 116.004 59.321 116.41 59.321ZM122.048 60V49.71H123.077V60H122.048ZM125.315 60V49.71H126.344V60H125.315ZM131.264 60.203C130.377 60.203 129.647 60.0117 129.073 59.629C128.504 59.2463 128.154 58.7143 128.023 58.033L129.073 57.858C129.185 58.2873 129.439 58.6303 129.836 58.887C130.237 59.139 130.732 59.265 131.32 59.265C131.894 59.265 132.347 59.146 132.678 58.908C133.009 58.6653 133.175 58.3363 133.175 57.921C133.175 57.6877 133.121 57.4987 133.014 57.354C132.911 57.2047 132.699 57.067 132.377 56.941C132.055 56.815 131.574 56.6657 130.935 56.493C130.249 56.3063 129.712 56.1197 129.325 55.933C128.938 55.7463 128.662 55.5317 128.499 55.289C128.336 55.0417 128.254 54.7407 128.254 54.386C128.254 53.9567 128.375 53.581 128.618 53.259C128.861 52.9323 129.197 52.6803 129.626 52.503C130.055 52.321 130.555 52.23 131.124 52.23C131.693 52.23 132.202 52.3233 132.65 52.51C133.103 52.692 133.467 52.9487 133.742 53.28C134.017 53.6113 134.181 53.9963 134.232 54.435L133.182 54.624C133.112 54.1807 132.89 53.8307 132.517 53.574C132.148 53.3127 131.679 53.1773 131.11 53.168C130.573 53.154 130.137 53.2567 129.801 53.476C129.465 53.6907 129.297 53.9777 129.297 54.337C129.297 54.5377 129.358 54.7103 129.479 54.855C129.6 54.995 129.82 55.128 130.137 55.254C130.459 55.38 130.916 55.5177 131.509 55.667C132.204 55.8443 132.75 56.031 133.147 56.227C133.544 56.423 133.826 56.654 133.994 56.92C134.162 57.186 134.246 57.515 134.246 57.907C134.246 58.621 133.98 59.1833 133.448 59.594C132.921 60 132.193 60.203 131.264 60.203ZM137.772 57.249C137.772 56.885 137.789 56.5653 137.821 56.29C137.859 56.01 137.952 55.73 138.101 55.45C138.241 55.184 138.414 54.9647 138.619 54.792C138.825 54.6147 139.039 54.449 139.263 54.295C139.487 54.1363 139.7 53.9497 139.9 53.735C140.082 53.525 140.204 53.3127 140.264 53.098C140.325 52.8833 140.355 52.657 140.355 52.419C140.355 52.181 140.325 51.9687 140.264 51.782C140.208 51.5953 140.12 51.4343 139.998 51.299C139.812 51.0703 139.583 50.914 139.312 50.83C139.042 50.746 138.759 50.704 138.465 50.704C138.176 50.704 137.905 50.746 137.653 50.83C137.406 50.9093 137.201 51.033 137.037 51.201C136.879 51.3503 136.762 51.53 136.687 51.74C136.617 51.95 136.582 52.1717 136.582 52.405H135.518C135.537 52.0363 135.616 51.677 135.756 51.327C135.901 50.9723 136.111 50.676 136.386 50.438C136.662 50.186 136.981 50.004 137.345 49.892C137.714 49.7753 138.085 49.717 138.458 49.717C138.916 49.717 139.35 49.787 139.76 49.927C140.171 50.0623 140.516 50.291 140.796 50.613C141.02 50.851 141.184 51.124 141.286 51.432C141.394 51.7353 141.447 52.0597 141.447 52.405C141.447 52.7923 141.375 53.1563 141.23 53.497C141.086 53.8377 140.883 54.141 140.621 54.407C140.463 54.5797 140.283 54.7407 140.082 54.89C139.882 55.0347 139.688 55.1863 139.501 55.345C139.319 55.499 139.179 55.667 139.081 55.849C138.96 56.073 138.892 56.2853 138.878 56.486C138.869 56.6867 138.864 56.941 138.864 57.249H137.772ZM137.779 60V58.628H138.864V60H137.779Z" fill="#565973"/>
</svg>
